<svg t="1581670715743" class="icon" viewBox="0 0 1278 1024" version="1.1" xmlns="http://www.w3.org/2000/svg" p-id="2234" width="200" height="200"><path d="M208.29289117 416.1302073V126.29696543A19.92665835 19.92665835 0 0 1 240.77334406 110.05673898l140.48293881 118.5636157" fill="#FFFFFF" p-id="2235"></path><path d="M258.30880255 342.60083902V126.29696543c0-17.73472605 9.06662932-6.87469702 22.21822403 4.18459871l125.13941263 102.52265598" fill="#FDB2AF" p-id="2236"></path><path d="M1009.74307932 416.1302073V126.29696543A19.92665835 19.92665835 0 0 0 976.96372717 110.05673898L836.68005427 228.32145541" fill="#FFFFFF" p-id="2237"></path><path d="M959.62753457 342.60083902V126.29696543c0-17.73472605-9.06662932-6.87469702-22.21822402 4.18459871L812.36953128 233.00422012" fill="#FDB2AF" p-id="2238"></path><path d="M1024.68807287 416.1302073h-29.88998711V126.29696543a6.17726431 6.17726431 0 0 0-3.38753184-6.27689685 4.1845979 4.1845979 0 0 0-4.58313135 0.6974327L846.34448293 239.58001707 827.51379156 216.9632604 967.59819776 98.30001135a33.77568577 33.77568577 0 0 1 36.36615069-4.98166479 35.86798471 35.86798471 0 0 1 20.72372442 32.97861887z" fill="#052D22" p-id="2239"></path><path d="M582.01736355 186.47547312h34.17421839a452.93293817 452.93293817 0 0 1 452.83330563 452.93293816v121.5526149H158.97441251v-151.44260202A423.04295105 423.04295105 0 0 1 582.01736355 186.47547312z" fill="#FFFFFF" p-id="2240"></path><path d="M1069.02488757 760.86139282H229.0166156v-149.4499356A425.03561746 425.03561746 0 0 1 654.05223223 186.47547312h-39.85331588a455.02523712 455.02523712 0 0 1 454.82597122 455.02523712z" fill="#24C6A7" p-id="2241"></path><path d="M1083.96988113 775.80638638H144.02941894V609.51842416a438.38647806 438.38647806 0 0 1 438.38647806-438.38647805h34.07458502a468.27646518 468.27646518 0 0 1 468.27646519 468.27646517z m-910.05047507-29.88998712h880.16048796V639.40841128a438.38647806 438.38647806 0 0 0-438.38647807-438.38647805h-33.6760524a408.49649093 408.49649093 0 0 0-408.49649093 408.49649093z" fill="#052D22" p-id="2242"></path><path d="M244.16087588 933.72515115a916.626272 916.626272 0 0 1-105.61128854-4.1845979 54.00124338 54.00124338 0 0 1-41.64671475-29.88998712 59.77997424 59.77997424 0 0 1 0-55.29647626L150.00741571 745.91639926h927.48630103l57.18950848 95.14979215a59.1821749 59.1821749 0 0 1 2.29156567 56.99024176 54.49941019 54.49941019 0 0 1-42.94194763 30.58742066c-52.50674378 5.77873087-131.61557703 4.88203144-251.37479224 3.38753182-67.45173733-0.79706607-143.87047147-1.69376632-235.23419833-1.69376632s-173.56119187 1.19559952-238.42246426 2.09229977c-48.5214126 0.69743271-89.47069464 1.29523288-124.84051255 1.29523205zM167.94140848 775.80638638l-44.3368147 82.89489771a29.88998711 29.88998711 0 0 0 0 27.49878808 25.10758905 25.10758905 0 0 0 18.93032556 13.74939404c42.74268173 5.28056406 115.77388321 4.28423125 226.16756899 2.59046577 64.96090576-0.89669944 145.86313705-2.09229895 239.11989698-2.09229977s168.08136109 0.89669944 235.63273261 1.69376632c118.66324905 1.4944996 197.07464877 2.39119904 247.6883595-3.18826511a24.5097897 24.5097897 0 0 0 19.92665835-14.14792749 29.88998711 29.88998711 0 0 0-1.09596616-28.29585415l-48.52141259-80.7029654z" fill="#052D22" p-id="2243"></path><path d="M1121.93016479 848.83758786l-52.90527722-87.97619504H158.97441251L110.15409983 851.72695371a42.64304837 42.64304837 0 0 0 29.88998711 62.96823935c70.34110318 8.8673626 220.78737158 0.69743271 466.98123231 0.6974327 254.8619566 0 404.51115893 7.27323047 485.01485842-1.59413213a42.84231509 42.84231509 0 0 0 29.88998712-64.96090577z" fill="#FFFFFF" p-id="2244"></path><path d="M244.16087588 933.72515115a916.626272 916.626272 0 0 1-105.61128854-4.1845979 54.00124338 54.00124338 0 0 1-41.64671475-29.88998712 59.77997424 59.77997424 0 0 1 0-55.29647626L150.00741571 745.91639926h927.48630103l57.18950848 95.14979215a59.1821749 59.1821749 0 0 1 2.29156567 56.99024176 54.49941019 54.49941019 0 0 1-42.94194763 30.58742066c-52.50674378 5.77873087-131.61557703 4.88203144-251.37479224 3.38753182-67.45173733-0.79706607-143.87047147-1.69376632-235.23419833-1.69376632s-173.56119187 1.19559952-238.42246426 2.09229977c-48.5214126 0.69743271-89.47069464 1.29523288-124.84051255 1.29523205zM167.94140848 775.80638638l-44.3368147 82.89489771a29.88998711 29.88998711 0 0 0 0 27.49878808 25.10758905 25.10758905 0 0 0 18.93032556 13.74939404c42.74268173 5.28056406 115.77388321 4.28423125 226.16756899 2.59046577 64.96090576-0.89669944 145.86313705-2.09229895 239.11989698-2.09229977s168.08136109 0.89669944 235.63273261 1.69376632c118.66324905 1.4944996 197.07464877 2.39119904 247.6883595-3.18826511a24.5097897 24.5097897 0 0 0 19.92665835-14.14792749 29.88998711 29.88998711 0 0 0-1.09596616-28.29585415l-48.52141259-80.7029654zM223.23788473 416.1302073h-29.88998712V126.29696543A35.86798471 35.86798471 0 0 1 213.97198868 93.31834656a33.97495166 33.97495166 0 0 1 36.46578406 4.98166479l140.48293964 118.66324905L371.59185419 239.58001707 231.10891455 121.11603474a4.1845979 4.1845979 0 0 0-4.58313135-1.09596616 6.17726431 6.17726431 0 0 0-3.28789847 5.87836422z" fill="#052D22" p-id="2245"></path><path d="M417.22390093 760.86139282h29.88998714v140.18403955h-29.88998714zM747.50825888 760.86139282h29.88998712v140.18403955h-29.88998712z" fill="#052D22" p-id="2246"></path><path d="M741.43062793 761.85772561a14.94499356 14.94499356 0 0 1-14.94499356-14.84536019 133.60824262 133.60824262 0 0 0-2.6900983-26.80135538 14.94499356 14.94499356 0 0 1 29.29218695-5.97799759 163.09969629 163.09969629 0 0 1 3.28789847 32.67971961 14.94499356 14.94499356 0 0 1-14.94499357 14.94499355z m-298.89987121-0.69743353a15.04462692 15.04462692 0 0 1-14.8453602-15.14425946 169.37659397 169.37659397 0 0 1 3.4871652-32.58008624 14.94499356 14.94499356 0 0 1 29.29218777 6.17726432 139.48660684 139.48660684 0 0 0-2.88936585 26.70172118 14.94499356 14.94499356 0 0 1-15.04462692 14.8453602z m260.3417882-99.63329013a14.94499356 14.94499356 0 0 1-11.15892828-4.88203142 130.71887677 130.71887677 0 0 0-19.92665836-18.03362532 14.94499356 14.94499356 0 1 1 17.73472522-24.01162289 163.99639572 163.99639572 0 0 1 24.31052299 22.01895731 14.8453602 14.8453602 0 0 1-0.99633281 21.42115713 14.54646011 14.54646011 0 0 1-9.96332876 3.88569864z m-221.18590503 0a14.44682676 14.44682676 0 0 1-9.96332876-3.98533117 14.94499356 14.94499356 0 0 1-0.9963328-21.12225788 169.37659397 169.37659397 0 0 1 24.41015552-21.81969058 14.94499356 14.94499356 0 1 1 17.63509268 24.11125626 136.29834174 136.29834174 0 0 0-19.92665836 17.93399195 15.14426028 15.14426028 0 0 1-11.15892828 4.78239807z m125.63757944-48.02324578h-1.59413297a108.20175349 108.20175349 0 0 0-12.75306124-0.69743354h-0.9963328c-4.38386463 0-8.76772925 0-13.0519605 0.69743354a15.14426028 15.14426028 0 0 1-16.33985982-13.45049396 14.94499356 14.94499356 0 0 1 13.45049397-16.3398598c5.28056406-0.49816681 10.6607623-0.79706607 15.94132635-0.79706689h1.29523288c5.18093069 0 9.96332876 0 15.54279373 0.79706689a14.94499356 14.94499356 0 0 1-1.4944996 29.88998712z" fill="#052D22" p-id="2247"></path></svg>